<svg id="Capa_1" fill="#706357" enable-background="new 0 0 512 512" height="512" viewBox="0 0 512 512" width="512" xmlns="http://www.w3.org/2000/svg"><g><path d="m80.333 160.667h351.334c44.296 0 80.333-36.037 80.333-80.333s-36.037-80.334-80.333-80.334h-351.334c-44.296 0-80.333 36.038-80.333 80.333s36.037 80.334 80.333 80.334zm351.334-15h-304.677c5.951-4.262 11.3-9.309 15.889-15h199.579c12.406 0 22.5-10.093 22.5-22.5s-10.094-22.5-22.5-22.5h-181.988c.116-1.765.197-3.539.197-5.333 0-3.273-.22-6.495-.602-9.667h167.393c14.517 0 28.586-5.197 39.617-14.634 8.316-7.115 18.922-11.033 29.864-11.033h89.638c6.584 10.195 10.423 22.321 10.423 35.333 0 36.025-29.309 65.334-65.333 65.334zm-273.613-45h184.404c4.136 0 7.5 3.364 7.5 7.5s-3.364 7.5-7.5 7.5h-190c2.34-4.757 4.227-9.774 5.596-15zm273.613-85.667c15.795 0 30.297 5.636 41.606 15h-76.333c-14.516 0-28.585 5.197-39.616 14.634-8.315 7.114-18.922 11.032-29.865 11.032h-170.683c-5.351-16.543-15.932-30.744-29.786-40.666zm-351.334 0c36.025 0 65.334 29.309 65.334 65.333s-29.309 65.333-65.334 65.333c-36.024.001-65.333-29.308-65.333-65.333s29.309-65.333 65.333-65.333z"/><path d="m80.333 130.667c27.754 0 50.334-22.58 50.334-50.333s-22.58-50.334-50.334-50.334-50.333 22.58-50.333 50.333 22.579 50.334 50.333 50.334zm0-85.667c19.483 0 35.334 15.851 35.334 35.333s-15.851 35.333-35.334 35.333c-19.482.001-35.333-15.85-35.333-35.333s15.851-35.333 35.333-35.333z"/><path d="m431.667 175.667h-351.334c-44.296 0-80.333 36.037-80.333 80.333s36.037 80.333 80.333 80.333h351.334c44.296 0 80.333-36.037 80.333-80.333s-36.037-80.333-80.333-80.333zm-416.667 80.333c0-36.025 29.309-65.333 65.333-65.333 36.025 0 65.334 29.309 65.334 65.333s-29.309 65.333-65.334 65.333c-36.024 0-65.333-29.308-65.333-65.333zm416.667 65.333h-304.677c20.367-14.587 33.677-38.427 33.677-65.333 0-3.273-.22-6.495-.602-9.667h55.608c14.516 0 28.585-5.197 39.616-14.635 8.315-7.114 18.922-11.032 29.864-11.032h94.431c4.143 0 7.5-3.358 7.5-7.5s-3.357-7.5-7.5-7.5h-94.431c-14.516 0-28.585 5.197-39.616 14.635-8.315 7.114-18.922 11.032-29.864 11.032h-58.896c-5.352-16.544-15.933-30.745-29.787-40.667h304.677c15.795 0 30.297 5.636 41.606 15h-63.689c-4.143 0-7.5 3.358-7.5 7.5s3.357 7.5 7.5 7.5h76.993c5.3 8.207 8.811 17.666 9.979 27.833h-210.915c-12.406 0-22.5 10.093-22.5 22.5s10.094 22.5 22.5 22.5h199.477c-11.833 16.816-31.374 27.834-53.451 27.834zm64.889-57.833c-.598 5.208-1.797 10.235-3.551 15h-207.364c-4.136 0-7.5-3.364-7.5-7.5s3.364-7.5 7.5-7.5z"/><path d="m80.333 205.667c-27.754 0-50.333 22.579-50.333 50.333s22.579 50.333 50.333 50.333 50.334-22.58 50.334-50.333-22.58-50.333-50.334-50.333zm0 85.666c-19.482 0-35.333-15.85-35.333-35.333s15.851-35.333 35.333-35.333c19.483 0 35.334 15.851 35.334 35.333s-15.851 35.333-35.334 35.333z"/><path d="m431.667 351.333h-351.334c-44.296 0-80.333 36.038-80.333 80.334s36.037 80.333 80.333 80.333h351.334c44.296 0 80.333-36.038 80.333-80.333s-36.037-80.334-80.333-80.334zm54.911 45c2.992 4.634 5.414 9.664 7.166 15h-298.744c-4.136 0-7.5-3.364-7.5-7.5s3.364-7.5 7.5-7.5zm-54.911-30c15.795 0 30.297 5.636 41.606 15h-278.273c-12.406 0-22.5 10.093-22.5 22.5s10.094 22.5 22.5 22.5h301.764c.143 1.761.236 3.536.236 5.333 0 3.284-.25 6.511-.72 9.667h-193.926c-14.517 0-28.586 5.197-39.616 14.634-8.315 7.115-18.922 11.033-29.865 11.033h-80.415c5.249-10.67 8.209-22.661 8.209-35.333 0-26.906-13.31-50.747-33.677-65.333h304.677zm-416.667 65.334c0-36.025 29.309-65.333 65.333-65.333 36.025 0 65.334 29.308 65.334 65.333s-29.309 65.333-65.334 65.333c-36.024 0-65.333-29.309-65.333-65.333zm416.667 65.333h-304.677c5.951-4.262 11.3-9.309 15.889-15h89.994c14.517 0 28.586-5.197 39.617-14.635 8.314-7.114 18.921-11.032 29.864-11.032h189.796c-9.755 23.83-33.184 40.667-60.483 40.667z"/><path d="m80.333 381.333c-27.754 0-50.333 22.58-50.333 50.333s22.579 50.334 50.333 50.334 50.334-22.58 50.334-50.333-22.58-50.334-50.334-50.334zm0 85.667c-19.482 0-35.333-15.851-35.333-35.333s15.851-35.333 35.333-35.333c19.483 0 35.334 15.851 35.334 35.333s-15.851 35.333-35.334 35.333z"/></g></svg>